<?xml version="1.0" standalone="no"?>
<!DOCTYPE svg PUBLIC "-//W3C//DTD SVG 20010904//EN"
 "http://www.w3.org/TR/2001/REC-SVG-20010904/DTD/svg10.dtd">
<svg version="1.0" xmlns="http://www.w3.org/2000/svg"
 width="700.000000pt" height="700.000000pt" viewBox="0 0 700.000000 700.000000"
 preserveAspectRatio="xMidYMid meet">
<metadata>
Created by potrace 1.14, written by Peter Selinger 2001-2017
</metadata>
<g transform="translate(0.000000,700.000000) scale(0.100000,-0.100000)"
fill="#000000" stroke="none">
<path d="M13 6963 c3 -10 8 -36 12 -58 4 -22 9 -51 11 -65 9 -48 55 -222 78
-294 119 -361 335 -735 670 -1161 39 -49 73 -92 76 -95 3 -3 39 -45 80 -95 41
-49 82 -97 90 -105 8 -9 58 -66 110 -126 52 -60 97 -111 100 -114 3 -3 41 -45
85 -95 44 -49 82 -92 85 -95 3 -3 39 -43 79 -89 82 -93 81 -91 37 -230 -28
-87 -101 -382 -120 -486 -20 -107 -46 -259 -51 -301 -4 -27 -9 -60 -11 -74
-10 -50 -13 -437 -4 -499 38 -250 99 -393 222 -526 20 -22 36 -40 35 -41 -1
-1 -38 -4 -82 -7 -287 -20 -529 -165 -717 -429 -76 -105 -117 -187 -162 -319
-45 -134 -47 -149 -51 -304 -3 -113 -1 -139 18 -195 l22 -65 85 -18 c105 -21
230 -23 293 -4 96 30 175 117 213 232 14 43 19 59 29 85 1 3 6 20 10 39 l8 33
69 -6 c38 -3 85 -10 106 -15 69 -18 136 -25 239 -25 62 -1 103 -5 103 -11 0
-5 -9 -52 -20 -102 -23 -111 -70 -248 -116 -344 -19 -38 -34 -71 -34 -73 0 -2
-16 -33 -36 -68 -90 -155 -108 -190 -163 -303 -83 -171 -128 -308 -147 -450
-3 -27 -8 -54 -11 -58 -2 -4 886 -7 1975 -6 l1980 1 -9 31 c-23 80 -27 265
-14 617 8 224 9 540 1 588 -3 15 -8 51 -11 81 -7 60 -29 164 -39 180 -4 6 15
21 42 35 31 15 59 40 77 68 16 24 35 48 43 55 20 17 48 0 57 -34 12 -43 13
-47 20 -154 7 -121 19 -191 41 -241 16 -35 20 -38 58 -38 54 -1 108 -26 221
-105 51 -35 111 -72 134 -81 59 -23 131 -15 184 22 54 38 136 140 184 229 l38
70 0 160 c-1 186 -8 276 -35 435 -33 195 -76 316 -126 360 -78 68 -252 129
-409 145 -70 7 -264 7 -320 1 -16 -2 -55 -7 -85 -10 -30 -4 -69 -11 -87 -15
l-31 -9 -7 72 c-4 39 -9 85 -11 101 -3 28 -8 103 -19 285 -2 41 -7 158 -10
260 -8 278 -21 551 -30 645 -2 22 -7 81 -11 130 -3 50 -8 93 -10 96 -1 3 -6
31 -9 63 -4 31 -8 67 -11 79 -2 12 -7 36 -9 52 -21 117 -28 152 -53 246 l-29
105 106 38 c265 96 560 241 781 384 73 47 305 215 320 232 3 3 37 32 75 65 75
64 235 222 300 296 82 93 85 96 245 309 28 37 180 278 180 285 0 2 14 27 30
56 17 28 29 54 26 56 -6 6 -221 4 -258 -2 -13 -2 -54 -6 -93 -10 -38 -3 -99
-11 -135 -16 -36 -6 -74 -12 -85 -13 -101 -14 -357 -80 -514 -133 -470 -158
-1023 -475 -1467 -840 -76 -63 -68 -62 -142 -26 -131 64 -415 145 -582 168
-25 3 -56 8 -70 10 -157 26 -711 27 -810 0 -8 -2 -35 -7 -60 -10 -178 -23
-372 -78 -559 -158 l-93 -40 -47 49 c-26 27 -125 139 -220 249 -96 110 -181
207 -190 215 -9 8 -29 31 -45 50 -117 143 -422 459 -586 607 -231 210 -477
382 -727 509 -122 62 -132 66 -233 104 -66 24 -73 25 -67 3z"/>
</g>
</svg>
